<?xml version="1.0" encoding="utf-8"?>
<!-- Generator: Adobe Illustrator 19.0.0, SVG Export Plug-In . SVG Version: 6.00 Build 0)  -->
<svg version="1.1" id="Camada_1" xmlns="http://www.w3.org/2000/svg" xmlns:xlink="http://www.w3.org/1999/xlink" x="0px" y="0px"
	 viewBox="1 -2 48 48" style="enable-background:new 1 -2 48 48;" xml:space="preserve">
<style type="text/css">
	.st0{fill:none;stroke:#FFFFFF;stroke-width:1.4545;stroke-miterlimit:10;}
</style>
<path id="XMLID_43_" class="st0" d="M29.3,13.4L29.3,13.4c0-0.8-0.7-1.5-1.5-1.5h-5.1c-0.8,0-1.5,0.7-1.5,1.5l0,0
	c0,0.8-0.7,1.5-1.5,1.5h-5.4c-0.8,0-1.5,0.7-1.5,1.5v15.3c0,0.8,0.7,1.5,1.5,1.5h21.1c0.8,0,1.5-0.7,1.5-1.5V16.3
	c0-0.8-0.7-1.5-1.5-1.5h-4.7C29.9,14.9,29.3,14.2,29.3,13.4z"/>
<circle id="XMLID_40_" class="st0" cx="25.3" cy="23.9" r="5.1"/>
<path id="XMLID_41_" class="st0" d="M16.7,18.8L16.7,18.8c-0.4,0-0.6-0.3-0.6-0.6l0,0c0-0.3,0.3-0.6,0.6-0.6l0,0
	c0.3,0,0.6,0.3,0.6,0.6l0,0C17.3,18.5,17,18.8,16.7,18.8z"/>
</svg>
